<?xml version="1.0" encoding="UTF-8" standalone="no"?>
<!-- Generator: Adobe Illustrator 16.0.0, SVG Export Plug-In . SVG Version: 6.00 Build 0)  -->

<svg
   version="1.1"
   id="Layer_1"
   x="0px"
   y="0px"
   width="1000px"
   height="1000px"
   viewBox="0 0 1000 1000"
   enable-background="new 0 0 1000 1000"
   xml:space="preserve"
   sodipodi:docname="logomark-cyan-flipped.svg"
   inkscape:export-filename="logomark-purple.png"
   inkscape:export-xdpi="96"
   inkscape:export-ydpi="96"
   inkscape:version="1.2.2 (b0a8486541, 2022-12-01)"
   xmlns:inkscape="http://www.inkscape.org/namespaces/inkscape"
   xmlns:sodipodi="http://sodipodi.sourceforge.net/DTD/sodipodi-0.dtd"
   xmlns="http://www.w3.org/2000/svg"
   xmlns:svg="http://www.w3.org/2000/svg"><defs
   id="defs13">
	
	
	
</defs><sodipodi:namedview
   id="namedview11"
   pagecolor="#ffffff"
   bordercolor="#000000"
   borderopacity="0.25"
   inkscape:showpageshadow="2"
   inkscape:pageopacity="0.0"
   inkscape:pagecheckerboard="0"
   inkscape:deskcolor="#d1d1d1"
   showgrid="false"
   inkscape:zoom="0.5135"
   inkscape:cx="235.63778"
   inkscape:cy="527.75073"
   inkscape:window-width="1920"
   inkscape:window-height="1011"
   inkscape:window-x="0"
   inkscape:window-y="0"
   inkscape:window-maximized="1"
   inkscape:current-layer="Layer_1" />
<path
   id="rect2603"
   style="fill:#97c2cb;fill-opacity:1"
   d="M 767 29.390625 L 9 127.25781 L 9 721.10938 L 767 790.05664 L 767 709.09961 L 720.68164 709.09961 C 719.47204 709.09961 718.37585 708.96423 717.33008 708.76758 C 715.87936 708.9751 714.50684 709.27463 713.0332 709.45508 C 705.65222 709.88925 694.36409 710.10547 679.16797 710.10547 L 634.23047 710.10547 L 430.38477 710.10547 L 430.38477 701.74414 C 429.50708 699.7746 429.00195 697.45797 429.00195 694.70312 L 429.00195 548.22852 L 370.88477 548.22852 L 370.88477 254.58789 L 728.22852 254.58789 L 728.22852 268.86133 C 736.89434 270.79854 745.37296 273.2051 753.56055 276.33789 C 755.96469 273.36644 760.01368 272.09961 765.6543 272.09961 L 767 272.09961 L 767 29.390625 z M 429.00195 548.22852 L 497.46484 548.22852 L 497.46484 384.47461 L 497.46484 323.90625 C 497.46484 309.1443 496.16169 299.80992 493.55664 295.90234 C 490.9516 291.56059 484.65595 288.52185 474.66992 286.78516 C 464.6839 285.9168 449.92264 285.48242 430.38477 285.48242 L 430.38477 278.375 C 429.5073 280.18364 429.00195 282.38259 429.00195 285.13867 L 429.00195 548.22852 z M 728.22852 295.4043 L 728.22852 542.67188 L 748.62305 610.09961 L 751 610.09961 L 751 307.28125 C 748.37171 305.62595 745.82896 303.90101 742.99023 302.41406 C 738.36505 299.82396 733.40554 297.5214 728.22852 295.4043 z M 728.22852 542.67188 L 679.10742 380.26758 C 676.38342 371.17559 670.69621 365.09961 662.07422 365.09961 L 625.76367 365.09961 L 625.76367 392.28906 L 625.76367 474.66406 L 630.72852 458.09961 L 634.81641 458.09961 L 662.08594 548.22852 L 728.22852 548.22852 L 728.22852 542.67188 z M 662.08594 548.22852 L 625.76367 548.22852 L 625.76367 606.55469 L 625.76367 660.60938 C 625.76367 673.20044 627.06682 681.01546 629.67188 684.05469 C 631.40857 686.65974 636.40107 688.39727 644.65039 689.26562 C 648.99214 689.69979 655.72217 689.91602 664.83984 689.91602 L 685.0293 689.91602 C 691.50462 689.70714 697.92595 688.96772 704.30078 687.75391 L 662.08594 548.22852 z M 604.82617 365.09961 C 596.19318 365.09961 590.51792 370.83379 587.79492 379.92578 L 553.47266 491.39453 L 553.47266 548.22852 L 603.71289 548.22852 L 605.57422 542.01953 L 605.57422 365.09961 L 604.82617 365.09961 z M 603.71289 548.22852 L 561.24414 689.91602 L 605.57422 689.91602 L 605.57422 548.22852 L 603.71289 548.22852 z " />
<path
   id="path2284"
   style="fill:#529aa9;fill-opacity:1"
   d="M 865.16797 209.44727 C 857.20908 209.44727 850.33299 209.80322 849.88672 210.23828 C 849.79673 210.32601 848.66416 210.48467 848.15625 210.60352 C 838.51583 211.30172 827.78196 212.2423 817.91602 213.43164 C 786.24377 217.24974 498.47556 254.34599 463.48633 259.12109 C 451.70446 260.72901 404.38256 266.86994 358.32617 272.76758 C 242.32544 287.62173 141.03673 301.40407 125.36914 304.4043 C 125.17253 304.4298 124.72385 304.48619 124.68555 304.49219 C 124.52223 304.51569 124.51618 304.54125 124.35938 304.56445 C 123.91556 304.65367 121.69951 304.96595 121.44531 305.03125 C 120.65565 305.23409 120.13968 305.44768 119.50391 305.65234 C 119.03305 305.7932 118.08628 305.89456 117.69727 306.05664 C 117.41502 306.13848 117.12298 306.23295 116.88281 306.35352 C 116.33394 306.51635 115.72332 306.68498 115.43555 306.82227 L 113.91211 307.13086 L 113.91211 307.29688 L 113 307.41406 L 113 335.08203 C 112.98459 336.10954 112.96849 337.0839 112.95117 337.9375 C 112.92437 340.43212 112.88613 340.27738 112.86133 343.17773 C 112.21979 380.58443 111.99066 453.18555 112.00586 603.55078 C 112.0109 653.28216 112.16712 690.32203 112.2793 731.67969 C 112.32684 760.71629 112.35811 786.92336 112.44531 809.7207 C 112.59741 840.85261 112.79473 859.33953 113 874.14648 L 113 901.26758 L 113.95508 901.35352 C 113.95592 901.37765 113.95614 901.462 113.95703 901.46289 C 113.95763 901.46389 114.04994 901.472 114.05078 901.47266 C 114.05108 901.47296 114.05048 901.55829 114.05078 901.55859 C 114.05277 901.56059 114.22942 901.57808 114.23242 901.58008 C 114.23265 901.58028 114.2322 901.66582 114.23242 901.66602 C 114.23272 901.66602 114.29309 901.67183 114.30859 901.67383 L 114.37695 902.17578 L 144.82227 905.35352 C 145.90208 905.46623 156.04676 906.37376 157.5 906.51953 C 192.69866 910.07479 255.47164 915.81613 379.74609 927.03125 C 391.16246 928.06152 393.30208 928.2394 404.18164 929.2207 C 469.20242 935.11206 496.25583 937.48807 560.37305 943.2168 C 629.29543 949.38924 698.60442 955.54622 737.18555 958.88281 C 751.05251 960.0824 786.24471 963.27789 795.17188 964.02148 C 828.50989 966.79843 846.74527 968.15041 858.20703 968.51758 L 877 970.21289 L 877 949.08203 C 877.22571 942.03018 877.37193 933.41775 877.33398 923.5 C 877.31429 918.34941 877.56899 847.92977 877.62109 824.30664 C 877.80146 791.55516 877.94097 750.82436 878.08984 710.41211 C 878.12104 703.53189 878.14803 695.94493 878.17773 688.7793 C 878.25981 664.55106 878.38657 648.07869 878.45117 622.30078 C 878.51223 597.94438 878.59592 580.42196 878.66406 556.95312 C 878.35474 558.07359 878.12767 559.19399 877.80273 560.31445 C 865.64584 603.29777 843.28577 638.68351 810.72266 666.4707 C 797.69741 677.32508 784.02113 686.22508 769.69336 693.17188 C 753.19471 701.4212 734.30777 706.85003 713.0332 709.45508 C 705.65222 709.88925 694.36409 710.10547 679.16797 710.10547 L 634.23047 710.10547 L 430.38477 710.10547 L 430.38477 689.91602 C 449.92264 689.91602 464.6839 689.48163 474.66992 688.61328 C 484.65595 686.87658 491.16976 683.62163 494.20898 678.8457 C 496.37986 674.93813 497.46484 666.03618 497.46484 652.14258 L 497.46484 596.13477 L 497.46484 384.47461 L 497.46484 323.90625 C 497.46484 309.1443 496.16169 299.80992 493.55664 295.90234 C 490.9516 291.56059 484.65595 288.52185 474.66992 286.78516 C 464.6839 285.9168 449.92264 285.48242 430.38477 285.48242 L 430.38477 265.29297 L 634.88086 265.29297 L 679.81836 265.29297 C 696.75118 265.29297 709.34247 265.72735 717.5918 266.5957 C 741.47141 270.50327 763.61331 278.75267 784.01953 291.34375 C 797.04478 299.1589 808.98547 308.49329 819.83984 319.34766 C 848.66996 348.17778 868.35796 383.50984 879.09375 425.20703 C 879.44276 332.48869 879.79098 258.15031 880.03516 245.96094 L 880.76562 209.44727 L 879.76172 209.46094 L 879.76172 209.44727 L 879.63867 209.44922 L 879.63867 209.44727 L 865.16797 209.44727 z M 657.02344 284.83008 C 650.07664 284.83008 646.60352 285.04826 646.60352 285.48242 C 636.61749 286.35077 630.54001 288.95513 628.36914 293.29688 C 626.63244 295.90193 625.76367 300.46199 625.76367 306.97461 L 625.76367 323.25586 L 625.76367 392.28906 L 625.76367 606.55469 L 625.76367 660.60938 C 625.76367 673.20044 627.06682 681.01546 629.67188 684.05469 C 631.40857 686.65974 636.40107 688.39727 644.65039 689.26562 C 648.99214 689.69979 655.72217 689.91602 664.83984 689.91602 L 685.0293 689.91602 C 698.48872 689.48185 711.73061 686.8775 724.75586 682.10156 C 734.74188 678.62817 744.94504 673.4175 755.36523 666.4707 C 763.18038 660.82644 769.91041 655.18139 775.55469 649.53711 C 804.64441 620.44739 820.05626 574.86045 821.79297 512.77344 C 823.09549 469.35595 820.27492 431.58206 813.32812 399.45312 C 806.8155 367.32418 791.40169 340.62223 767.08789 319.34766 C 760.1411 312.83504 752.10791 307.18999 742.99023 302.41406 C 732.13587 296.33562 719.76274 291.56129 705.86914 288.08789 C 697.61982 286.35119 685.02853 285.48242 668.0957 285.48242 L 657.02344 284.83008 z M 553.47266 285.48242 L 553.47266 689.91602 L 605.57422 689.91602 L 605.57422 285.48242 L 553.47266 285.48242 z " /><path
   id="path1447"
   style="color:#000000;fill:#278193;-inkscape-stroke:none;fill-opacity:1"
   inkscape:label="path1447"
   d="M 991 96.111328 L 227 193.97852 L 227 787.83203 L 991 856.78125 L 991 96.111328 z M 430.38477 265.29297 L 634.88086 265.29297 L 679.81836 265.29297 C 696.75118 265.29297 709.34247 265.72735 717.5918 266.5957 C 741.47141 270.50327 763.61526 278.75268 784.02148 291.34375 C 797.04673 299.1589 808.98547 308.49329 819.83984 319.34766 C 849.79791 349.30573 869.988 386.21084 880.4082 430.0625 C 891.26257 473.47999 890.39381 516.89696 877.80273 560.31445 C 865.64584 603.29777 843.28577 638.68351 810.72266 666.4707 C 797.69741 677.32508 784.02113 686.22508 769.69336 693.17188 C 753.19471 701.4212 734.30777 706.85003 713.0332 709.45508 C 705.65222 709.88925 694.36409 710.10547 679.16797 710.10547 L 634.23047 710.10547 L 430.38477 710.10547 L 430.38477 689.91602 C 449.92264 689.91602 464.6839 689.48163 474.66992 688.61328 C 484.65595 686.87658 491.16976 683.62163 494.20898 678.8457 C 496.37986 674.93813 497.46484 666.03618 497.46484 652.14258 L 497.46484 596.13477 L 497.46484 384.47461 L 497.46484 323.90625 C 497.46484 309.1443 496.16169 299.80992 493.55664 295.90234 C 490.9516 291.56059 484.65595 288.52185 474.66992 286.78516 C 464.6839 285.9168 449.92264 285.48242 430.38477 285.48242 L 430.38477 265.29297 z M 657.02539 284.83008 C 650.07859 284.83008 646.60352 285.04825 646.60352 285.48242 C 636.61749 286.35077 630.54001 288.95513 628.36914 293.29688 C 626.63244 295.90193 625.76367 300.46199 625.76367 306.97461 L 625.76367 323.25586 L 625.76367 392.28906 L 625.76367 606.55469 L 625.76367 660.60938 C 625.76367 673.20045 627.06682 681.01546 629.67188 684.05469 C 631.40857 686.65974 636.40107 688.39727 644.65039 689.26562 C 648.99214 689.6998 655.72217 689.91602 664.83984 689.91602 L 685.0293 689.91602 C 698.48872 689.48184 711.73061 686.87749 724.75586 682.10156 C 734.74188 678.62817 744.94504 673.4175 755.36523 666.4707 C 763.18038 660.82643 769.91041 655.18138 775.55469 649.53711 C 804.64441 620.44739 820.05822 574.86045 821.79492 512.77344 C 823.09745 469.35595 820.27492 431.58207 813.32812 399.45312 C 806.8155 367.32418 791.40169 340.62223 767.08789 319.34766 C 760.1411 312.83504 752.10791 307.18999 742.99023 302.41406 C 732.13587 296.33562 719.76274 291.56129 705.86914 288.08789 C 697.61982 286.35119 685.02853 285.48242 668.0957 285.48242 L 657.02539 284.83008 z M 553.47266 285.48242 L 553.47266 689.91602 L 605.57422 689.91602 L 605.57422 285.48242 L 553.47266 285.48242 z " /></svg>
